<svg width="26" height="22" viewBox="0 0 26 22" fill="none" xmlns="http://www.w3.org/2000/svg">
<path d="M15.777 1.80802C17.9227 1.80802 19.8188 3.22189 19.8188 6.06772C19.8188 10.5543 13.9386 13.5683 10.8084 16.8571C7.67819 13.5683 1.79884 10.5552 1.79884 6.06862C1.79884 3.30687 3.60759 1.80802 5.84061 1.80802C8.70507 1.80802 10.2058 5.10224 10.8084 6.61013C11.4092 5.10404 12.9099 1.80802 15.777 1.80802ZM15.777 0C13.8188 0 11.8623 0.960059 10.8084 3.09081C9.75447 0.960059 7.79799 0 5.84061 0C2.77528 0 0 2.16059 0 6.04693C0 12.6191 8.92035 15.935 10.8084 19.8882C12.6964 15.935 21.6176 12.6191 21.6176 6.04693C21.6176 1.90113 18.5424 0 15.777 0Z" fill="#573A32"/>
<path d="M17.7032 10.0373L18.3749 11.391L19.0468 10.0373C20.4831 7.1434 25.1912 7.94825 25.1912 11.7657C25.1912 13.6943 23.8822 15.2207 22.1625 16.7107C21.747 17.0708 21.3203 17.4185 20.8942 17.7656L20.876 17.7805C20.4475 18.1297 20.0179 18.48 19.6203 18.8285C19.1738 19.22 18.7397 19.6323 18.375 20.0705C18.0103 19.6323 17.5763 19.22 17.1298 18.8285C16.7323 18.48 16.3027 18.1297 15.8742 17.7805L15.856 17.7657C15.43 17.4185 15.0033 17.0708 14.5878 16.7108C12.8683 15.2207 11.5594 13.6943 11.5594 11.7657C11.5594 7.94654 16.2681 7.14541 17.7032 10.0373Z" stroke="#E1A40F" stroke-width="1.5"/>
</svg>
