<svg width="93" height="40" viewBox="0 0 93 40" fill="none" xmlns="http://www.w3.org/2000/svg">
<path d="M49.1953 2C49.638 2.01302 50.2565 2.03906 51.0508 2.07812C53.0951 2.18229 54.4622 2.23438 55.1523 2.23438C56.0638 2.23438 57.7435 2.17578 60.1914 2.05859C60.8164 2.03255 61.2982 2.01302 61.6367 2V3.69922C60.4128 3.72526 59.612 3.85547 59.2344 4.08984C58.8698 4.32422 58.6875 4.77344 58.6875 5.4375C58.6875 5.6849 58.7331 5.9974 58.8242 6.375C58.9154 6.7526 59.0911 7.33203 59.3516 8.11328L65.0156 24.0117L65.1328 23.6992C69.625 12.5013 71.8711 6.375 71.8711 5.32031C71.8711 4.70833 71.6823 4.28516 71.3047 4.05078C70.9271 3.81641 70.1589 3.6862 69 3.66016V2C69.2083 2.01302 69.5143 2.02604 69.918 2.03906C71.9102 2.16927 73.3099 2.23438 74.1172 2.23438C74.7682 2.23438 76.0312 2.17578 77.9062 2.05859C78.4792 2.03255 78.9219 2.01302 79.2344 2V3.75781C78.7266 3.75781 78.2773 3.79688 77.8867 3.875C77.5091 3.95312 77.1901 4.07031 76.9297 4.22656C76.4349 4.53906 75.582 6.14714 74.3711 9.05078C73.8633 10.2617 73.4596 11.2122 73.1602 11.9023C70.4648 18.2044 68.5443 22.7617 67.3984 25.5742C66.2526 28.3737 65.6797 29.9102 65.6797 30.1836H61.6758C61.6758 29.8581 60.9271 27.5924 59.4297 23.3867C57.9453 19.181 56.1875 14.513 54.1562 9.38281C54.0521 9.10938 53.8958 8.71875 53.6875 8.21094C52.4896 5.16406 51.1549 3.64062 49.6836 3.64062C49.6315 3.64062 49.5469 3.64714 49.4297 3.66016C49.3255 3.67318 49.2474 3.67969 49.1953 3.67969V2Z" fill="#573A32"/>
<path d="M80.6211 2C81.8581 2.07812 82.9909 2.13672 84.0195 2.17578C85.0612 2.21484 85.9987 2.23438 86.832 2.23438C87.7174 2.23438 89.293 2.17578 91.5586 2.05859C92.1055 2.03255 92.5286 2.01302 92.8281 2V3.75781H92.418C91.2982 3.75781 90.5495 4.02474 90.1719 4.55859C89.8073 5.07943 89.625 6.51823 89.625 8.875V9.48047C89.625 10.7305 89.6315 12.4167 89.6445 14.5391C89.6576 16.6615 89.6641 18.1589 89.6641 19.0312C89.6641 22.6901 89.5664 25.4245 89.3711 27.2344C89.1758 29.0443 88.8503 30.5091 88.3945 31.6289C87.5872 33.582 86.3568 35.151 84.7031 36.3359C83.0495 37.5208 81.2656 38.1133 79.3516 38.1133C78.0755 38.1133 77.0859 37.8919 76.3828 37.4492C75.6667 37.0065 75.3086 36.388 75.3086 35.5938C75.3086 34.9036 75.4844 34.3568 75.8359 33.9531C76.1875 33.5495 76.6628 33.3477 77.2617 33.3477C77.7044 33.3477 78.3685 33.6406 79.2539 34.2266C80.1263 34.8125 80.8229 35.1055 81.3438 35.1055C82.3854 35.1055 83.1276 34.5716 83.5703 33.5039C84.013 32.4492 84.2344 30.5026 84.2344 27.6641L84.1953 7.15625C84.1953 5.8151 83.9805 4.91667 83.5508 4.46094C83.1211 3.99219 82.3203 3.75781 81.1484 3.75781H80.6211V2Z" fill="#573A32"/>
<path d="M29.2287 3.34955C33.2037 3.34955 36.7165 5.96891 36.7165 11.2411C36.7165 19.553 25.8227 25.1367 20.0237 31.2296C14.2247 25.1367 3.33255 19.5547 3.33255 11.2428C3.33255 6.12633 6.68346 3.34955 10.8204 3.34955C16.1271 3.34955 18.9073 9.45244 20.0237 12.246C21.1368 9.45579 23.9169 3.34955 29.2287 3.34955ZM29.2287 0C25.6007 0 21.9761 1.77861 20.0237 5.72606C18.0712 1.77861 14.4466 0 10.8204 0C5.14151 0 0 4.00272 0 11.2026C0 23.3782 16.5259 29.5213 20.0237 36.8451C23.5214 29.5213 40.049 23.3782 40.049 11.2026C40.049 3.52206 34.3518 0 29.2287 0Z" fill="#573A32"/>
<path d="M34.0417 17.9775C30.7406 11.3252 20.0257 13.2304 20.0257 21.7972C20.0257 30.2892 31.5934 34.5738 34.0417 39.6819C36.49 34.5738 48.0588 30.2892 48.0588 21.7972C48.0588 13.2385 37.3474 11.317 34.0417 17.9775Z" fill="#DA5373"/>
</svg>
